<svg width="52" height="47" viewBox="0 0 52 47" fill="none" xmlns="http://www.w3.org/2000/svg">
<rect x="0.615967" y="0.448242" width="50.688" height="46.3448" fill="#323238"/>
<g clip-path="url(#clip0_61385:216)">
<path d="M24.6125 35.2068C23.4435 35.2068 22.0781 35.201 20.7306 35.1305C18.7592 35.1711 16.8497 34.499 15.4169 33.2603C14.0618 31.9507 13.3267 30.2051 13.3714 28.4028C13.288 27.0095 13.288 25.6009 13.288 24.2385C13.288 24.0325 13.288 23.8266 13.288 23.6206C13.288 23.4146 13.288 23.2086 13.288 23.0026C13.288 21.6403 13.288 20.2316 13.3714 18.8393C13.327 17.0368 14.062 15.291 15.4169 13.9808C16.8497 12.7421 18.7592 12.0701 20.7306 12.1106C22.0823 12.0402 23.4435 12.0344 24.6125 12.0344H27.3085C28.4775 12.0344 29.8429 12.0402 31.1914 12.1106C33.1626 12.0698 35.0718 12.7419 36.5041 13.9808C37.8589 15.291 38.5939 17.0368 38.5496 18.8393C38.632 20.2316 38.632 21.6403 38.632 23.0036C38.632 23.2096 38.632 23.4156 38.632 23.6215C38.632 23.8275 38.632 24.0332 38.632 24.2385C38.632 25.6009 38.632 27.0095 38.5485 28.4037C38.5932 30.2061 37.8581 31.9517 36.5031 33.2613C35.0707 34.5002 33.1615 35.1723 31.1903 35.1315C29.8376 35.202 28.4764 35.2077 27.3074 35.2077L24.6125 35.2068Z" fill="white"/>
<path d="M31.88 18.5889C32.1297 18.7415 32.4233 18.8229 32.7236 18.8229L32.7247 18.8239C33.1273 18.8234 33.5133 18.6768 33.7978 18.4163C34.0823 18.1558 34.2421 17.8026 34.2421 17.4345C34.2421 17.1599 34.1531 16.8915 33.9862 16.6631C33.8194 16.4348 33.5822 16.2569 33.3047 16.1518C33.0272 16.0467 32.7219 16.0192 32.4274 16.0728C32.1328 16.1263 31.8622 16.2586 31.6498 16.4527C31.4375 16.6469 31.2928 16.8943 31.2343 17.1636C31.1757 17.433 31.2057 17.7121 31.3207 17.9658C31.4356 18.2195 31.6302 18.4364 31.88 18.5889Z" fill="#323238"/>
<path fill-rule="evenodd" clip-rule="evenodd" d="M25.9603 29.564C24.6746 29.5638 23.4178 29.215 22.3489 28.5618C21.28 27.9086 20.447 26.9802 19.9551 25.8941C19.4632 24.808 19.3347 23.613 19.5856 22.4601C19.8366 21.3072 20.4558 20.2482 21.365 19.4171C22.2742 18.5859 23.4325 18.0199 24.6935 17.7907C25.9545 17.5614 27.2615 17.6792 28.4493 18.129C29.6371 18.5789 30.6523 19.3408 31.3665 20.3182C32.0808 21.2956 32.462 22.4447 32.462 23.6202C32.4604 25.1964 31.7748 26.7076 30.5559 27.8221C29.3369 28.9366 27.6841 29.5624 25.9603 29.564ZM25.9602 19.7587C25.1248 19.7587 24.3081 19.9852 23.6135 20.4096C22.9188 20.8339 22.3774 21.4371 22.0577 22.1428C21.738 22.8485 21.6544 23.625 21.8174 24.3742C21.9803 25.1234 22.3826 25.8115 22.9734 26.3516C23.5641 26.8918 24.3168 27.2596 25.1361 27.4086C25.9555 27.5576 26.8048 27.4811 27.5766 27.1888C28.3485 26.8965 29.0082 26.4015 29.4723 25.7664C29.9365 25.1313 30.1842 24.3846 30.1842 23.6207C30.1842 22.5965 29.7392 21.6141 28.947 20.8899C28.1549 20.1656 27.0805 19.7587 25.9602 19.7587Z" fill="#323238"/>
</g>
<defs>
<clipPath id="clip0_61385:216">
<rect width="25.344" height="23.1724" fill="white" transform="translate(13.288 12.0344)"/>
</clipPath>
</defs>
</svg>
